<svg id="CommonCircle_StackedLogo_RGB" xmlns="http://www.w3.org/2000/svg" xmlns:xlink="http://www.w3.org/1999/xlink" viewBox="0 0 105.1073 102"><defs><style>.cls-1{fill:url(#linear-gradient);}</style><linearGradient id="linear-gradient" x1="42.8132" y1="100.3374" x2="67.8006" y2="7.0829" gradientUnits="userSpaceOnUse"><stop offset="0" stop-color="#4b2e83"/><stop offset="0.0133" stop-color="#4c2f85"/><stop offset="0.3064" stop-color="#5840ab"/><stop offset="0.5778" stop-color="#614cc6"/><stop offset="0.8175" stop-color="#6653d6"/><stop offset="1" stop-color="#6856dc"/></linearGradient></defs><title>CommonCircle_LogoMark_RGB</title><path class="cls-1" d="M86.8815,36.8252l-.9829-.6563c-.0042-.0867-.007-.1683-.0117-.2575a33.6375,33.6375,0,0,0-67.12-.8292l-.1139,1.2271c-.0523.0356-.1024.0656-.1549.1017A33.6424,33.6424,0,0,0,50.9518,94.99c.1519-.0659.3-.1368.4479-.2117l.1412-.0716.7634-.4036c.0908.0453.1785.0909.2707.136A33.6435,33.6435,0,0,0,86.8815,36.8252ZM82.2052,53.1257l.6184.9009A18.5376,18.5376,0,0,1,66.4412,82.7328a18.3708,18.3708,0,0,1-6.4265-1.4966,18.1279,18.1279,0,0,1-2.3576-1.1945c-.4523-.275-.8766-.5781-1.2962-.885a18.376,18.376,0,0,1-4.3345-4.4807,18.6254,18.6254,0,0,1-2.7789-6.3588l-.028-.1282.0405-.1252A12.7829,12.7829,0,0,0,37.0956,51.34c-.387,0-.7756.0179-1.161.0536a12.7847,12.7847,0,0,0-.04,25.4689l.2875.0263.11.2658a33.7716,33.7716,0,0,0,2.4237,4.724l.0226.0364c.1308.2123.3087.4711.4452.6813l-1.1119.0554a18.5787,18.5787,0,0,1-9.5535-34.727c.5082-.2843,1.0444-.5494,1.64-.81a18.3259,18.3259,0,0,1,6.086-1.48,19.14,19.14,0,0,1,2.1821-.0131,18.43,18.43,0,0,1,4.434.7257l.1259.0374.09.0963a12.8887,12.8887,0,0,0,6.8056,3.8457A13.0892,13.0892,0,0,0,58.73,48.98a12.8889,12.8889,0,0,0,1.7266-1.1781A13.27,13.27,0,0,0,64.14,43.0465a13.0618,13.0618,0,0,0,.903-2.9,12.807,12.807,0,0,0,.1181-3.9476A12.6447,12.6447,0,0,0,63.653,31.55c-.1865-.3334-.3932-.65-.6045-.96a12.8844,12.8844,0,0,0-16.8254-3.9615,12.6487,12.6487,0,0,0-4.26,3.8908l-.1632.237-.286-.0342a33.0294,33.0294,0,0,0-3.91-.2276c-.5394,0-1.0833.0131-1.6288.038-.25.0113-.5514.0364-.802.0536l.4741-.9931A18.5928,18.5928,0,0,1,52.3015,19.1955c.1461,0,.2906.0016.4351.0055a18.5783,18.5783,0,0,1,18.1153,18.99,18.6252,18.6252,0,0,1-2.16,8.1827c-.2673.5043-.55,1-.861,1.4757A18.7137,18.7137,0,0,1,64.9135,51.34l-.0964.0894-.1274.0279a12.8827,12.8827,0,0,0-5.2267,2.4673,12.99,12.99,0,0,0-1.5479,1.4368,12.6981,12.6981,0,0,0-2.48,4.1053,12.4428,12.4428,0,0,0-.6668,2.3476,12.8662,12.8662,0,0,0,8.25,14.17,12.6641,12.6641,0,0,0,4.0595.7841,13.1274,13.1274,0,0,0,1.9675-.1212A12.8866,12.8866,0,0,0,80.18,64.2655a12.6211,12.6211,0,0,0-1.1827-5.6463l-.1213-.2611.1757-.2293a33.8461,33.8461,0,0,0,2.7959-4.3057C81.9718,53.5962,82.0858,53.3579,82.2052,53.1257ZM52.9728,9.1463a28.6558,28.6558,0,0,1,27.9345,29.28c-.0046.19-.0186.3754-.031.5611l-.0234.3466a28.4227,28.4227,0,0,1-2.5907,10.374A28.9527,28.9527,0,0,1,72.434,58.069a7.7472,7.7472,0,0,1,2.6981,5.4171c.014.2159.0218.4367.0171.66a7.745,7.745,0,0,1-3.758,6.4662,7.6157,7.6157,0,0,1-6.6876.6325,7.8886,7.8886,0,0,1-1.6163-.8074,7.8778,7.8778,0,0,1-3.4285-5.6066,7.8442,7.8442,0,0,1-.0543-1.05,7.7172,7.7172,0,0,1,.5732-2.7236L60.48,60.4c.0944-.1819.1937-.3615.3026-.5363l.0855-.1181c.0658-.1012.1381-.1965.2081-.2941l.451-.5732A7.85,7.85,0,0,1,66.9727,56.21a23.56,23.56,0,0,0,6.8632-8.875,23.4759,23.4759,0,0,0,2.0468-9.0266c.0031-.1344-.0031-.2665-.0093-.3986-.0047-.1134-.0109-.2269-.0109-.3411a23.5585,23.5585,0,0,0-45.9487-7.1717l-.3265,1.0638c-.0868.0212-.1743.0372-.261.0591a33.5651,33.5651,0,0,0-4.47,1.4772c-.2943.1206-.5717.24-.8462.3587l.2463-1.1443A28.4575,28.4575,0,0,1,52.9728,9.1463ZM46.0459,91.4555A28.6278,28.6278,0,0,1,23.607,39.1472c.0761-.0429.1538-.0817.2331-.12l.1632-.0831a28.8734,28.8734,0,0,1,15.3535-3.3562,29.21,29.21,0,0,1,5.4723.8625,7.751,7.751,0,0,1,3.29-5.08c.1818-.1227.3668-.2424.5611-.3512a7.7581,7.7581,0,0,1,11.5318,6.0892,7.8008,7.8008,0,0,1-1.2651,4.985,7.7452,7.7452,0,0,1-1.7981,1.9155,7.9661,7.9661,0,0,1-.8766.58,7.638,7.638,0,0,1-3.4984.9605l-.1429.0078c-.11.0061-.2332.0116-.33.01a7.79,7.79,0,0,1-6.2959-3.4705A23.7173,23.7173,0,0,0,34.4768,40.744a24.26,24.26,0,0,0-8.4158,2.7882c-.2176.1219-.4243.2572-.631.3916l-.3419.2207A23.5729,23.5729,0,0,0,41.643,87.3587l1.0828-.24c.0669.0718.1288.1467.1963.218a33.3744,33.3744,0,0,0,3.5186,3.2124q.3458.2742.6807.529ZM91.7492,79.1108a28.7453,28.7453,0,0,1-39.3327,9.5154l-.2938-.1935a28.4722,28.4722,0,0,1-7.8889-7.3854,28.9129,28.9129,0,0,1-4.5754-9.5916,7.7542,7.7542,0,0,1-6.04-.376c-.1958-.0971-.3917-.2-.5828-.3156a7.7714,7.7714,0,1,1,10.9646-3.1028,23.8124,23.8124,0,0,0,4.5474,10.81,24.4708,24.4708,0,0,0,6.4871,5.8655c.26.1585.5238.2968.7895.4351l.373.1967A23.5577,23.5577,0,0,0,85.0911,48.7176l-.7178-.8956c.0192-.0609.0416-.1194.06-.1806A33.3573,33.3573,0,0,0,85.5,43.0846c.05-.3163.0929-.6226.1346-.9285l.8487.8136-.0011.0076A28.5655,28.5655,0,0,1,91.7492,79.1108Z"/></svg>