<?xml version="1.0" encoding="UTF-8"?>
<svg width="112px" height="35px" viewBox="0 0 112 35" version="1.1" xmlns="http://www.w3.org/2000/svg" xmlns:xlink="http://www.w3.org/1999/xlink">
    <!-- Generator: Sketch 57.1 (83088) - https://sketch.com -->
    <title>logo_BrotmanBatyInstitute</title>
    <desc>Created with Sketch.</desc>
    <g id="logo_BrotmanBatyInstitute" stroke="none" stroke-width="1" fill="none" fill-rule="evenodd">
        <g transform="translate(0.000000, 1.000000)" fill="#005587" fill-rule="nonzero" id="Group">
            <g transform="translate(0.000000, 0.000000)">
                <rect id="Rectangle" x="31.4177572" y="19.5395176" width="1" height="4.75365666"></rect>
                <path d="M38.7477547,22.038876 C38.7477547,22.7188863 38.7682833,23.3565563 38.7618681,23.3565563 L38.7541699,23.3565563 C38.7477547,23.3565563 38.4013344,22.8600206 38.0420837,22.3788812 L35.9289197,19.5395176 L35.4118553,19.5395176 L35.4118553,24.2931742 L35.9686939,24.2931742 L35.9686939,21.801514 C35.9686939,21.0406724 35.9481653,20.4491917 35.9545804,20.4491917 L35.9622787,20.4491917 C35.9686939,20.4491917 36.2676418,20.8841417 36.6743649,21.4486785 L38.7862458,24.2931742 L39.3084424,24.2931742 L39.3084424,19.5395176 L38.7477547,19.5395176 L38.7477547,22.038876 Z" id="Path"></path>
                <path d="M44.3328201,21.5846806 C43.7002823,21.3935078 43.0420837,21.230562 43.0420837,20.7083654 C43.0420837,20.2323583 43.4834488,19.9385425 44.1082884,19.9385425 C44.699769,19.9385425 45.1950218,20.2849628 45.2963818,20.86233 L45.8262766,20.7199128 C45.669746,19.9590711 44.9910188,19.4497049 44.128817,19.4497049 C43.1780857,19.4497049 42.4775468,20.0001283 42.4775468,20.7404414 C42.4775468,21.5615858 43.2794457,21.8066462 43.823454,21.9760072 C44.495766,22.1864255 45.3169104,22.3288427 45.3169104,23.0216833 C45.3169104,23.5169361 44.8883757,23.8915833 44.1827047,23.8915833 C43.4128817,23.8915833 42.953554,23.4027457 42.885553,22.8523223 L42.349243,22.9947396 C42.4980754,23.7966385 43.1434437,24.3945343 44.162176,24.3945343 C45.2078522,24.3945343 45.9006928,23.8094688 45.9006928,23.008853 C45.9006928,22.0799333 44.9974339,21.7809854 44.3328201,21.5846806 Z" id="Path"></path>
                <polygon id="Path" points="48.357711 20.0629972 49.9473954 20.0629972 49.9473954 24.2931742 50.4965358 24.2931742 50.4965358 20.0629972 52.0926353 20.0629972 52.0926353 19.5395176 48.357711 19.5395176"></polygon>
                <rect id="Rectangle" x="55.0461894" y="19.5395176" width="1" height="4.75365666"></rect>
                <polygon id="Path" points="58.555299 20.0629972 60.1449833 20.0629972 60.1449833 24.2931742 60.6941237 24.2931742 60.6941237 20.0629972 62.2902233 20.0629972 62.2902233 19.5395176 58.555299 19.5395176"></polygon>
                <path d="M68.4629202,22.3301258 C68.4629202,23.3565563 67.986913,23.8697717 67.0631255,23.8697717 C66.139338,23.8697717 65.671029,23.3565563 65.671029,22.3301258 L65.671029,19.5395176 L65.1141904,19.5395176 L65.1141904,22.3301258 C65.1141904,23.6747498 65.8211444,24.4022325 67.0631255,24.4022325 C68.3051065,24.4022325 69.0184758,23.6747498 69.0184758,22.3301258 L69.0184758,19.5459328 L68.4629202,19.5459328 L68.4629202,22.3301258 Z" id="Path"></path>
                <polygon id="Path" points="71.8424431 20.0629972 73.4321271 20.0629972 73.4321271 24.2931742 73.9812674 24.2931742 73.9812674 20.0629972 75.5773674 20.0629972 75.5773674 19.5395176 71.8424431 19.5395176"></polygon>
                <polygon id="Path" points="78.5296382 24.2944573 81.6204771 24.2944573 81.6204771 23.7709777 79.0864771 23.7709777 79.0864771 22.0247626 81.1855271 22.0247626 81.1855271 21.5295099 79.0864771 21.5295099 79.0864771 20.0629972 81.6204771 20.0629972 81.6204771 19.5395176 78.5296382 19.5395176"></polygon>
                <path d="M36.7051578,14.0404157 C36.7051578,13.0601745 36.2971517,12.3557865 35.4657428,12.1787272 L35.4657428,12.1671799 C36.0148833,12.0273287 36.6076469,11.3973569 36.6076469,10.6390814 C36.6076469,9.55106493 35.7095201,8.74403389 34.3892738,8.74403389 L31.4177572,8.74403389 L31.4177572,16.2806005 L34.1531948,16.2806005 C35.8224275,16.2806005 36.7051578,15.3324352 36.7051578,14.0404157 Z M32.6135489,9.75635104 L34.1531948,9.75635104 C34.9076212,9.75635104 35.4131383,10.1669233 35.4131383,10.7827817 C35.4131383,11.3550167 34.9076212,11.8169105 34.1531948,11.8169105 L32.6135489,11.8169105 L32.6135489,9.75635104 Z M34.0454196,15.2734155 L32.6135489,15.2734155 L32.6135489,12.7381319 L34.162176,12.7381319 C34.9704901,12.7381319 35.4670259,13.2513472 35.4670259,14.0083398 C35.4670259,14.7653323 34.8755453,15.2734155 34.0454196,15.2734155 Z" id="Shape"></path>
                <path d="M90.2168333,12.1787272 L90.2168333,12.1671799 C90.7659736,12.0273287 91.3587375,11.3973569 91.3587375,10.6390814 C91.3587375,9.55106493 90.4606104,8.74403389 89.1403646,8.74403389 L86.1688479,8.74403389 L86.1688479,16.2806005 L88.9042854,16.2806005 C90.5722347,16.2806005 91.4562486,15.3324352 91.4562486,14.0404157 C91.4562486,13.0601745 91.0482424,12.3557865 90.2168333,12.1787272 Z M87.3633562,9.75635104 L88.9030021,9.75635104 C89.6574285,9.75635104 90.1629458,10.1669233 90.1629458,10.7827817 C90.1629458,11.3550167 89.6574285,11.8169105 88.9030021,11.8169105 L87.3633562,11.8169105 L87.3633562,9.75635104 Z M88.7965104,15.2734155 L87.3633562,15.2734155 L87.3633562,12.7381319 L88.91455,12.7381319 C89.7215806,12.7381319 90.2193993,13.2513472 90.2193993,14.0083398 C90.2193993,14.7653323 89.6253528,15.2734155 88.7965104,15.2734155 L88.7965104,15.2734155 Z" id="Shape"></path>
                <path d="M41.6987426,13.3629715 C42.6571722,13.0075699 43.2063126,12.2428792 43.2063126,11.1818065 C43.2063126,9.69476521 42.1182961,8.74403389 40.3092122,8.74403389 L37.8496279,8.74403389 L37.8496279,16.2806005 L39.0441365,16.2806005 L39.0441365,13.5862202 L40.3143444,13.5862202 C40.3936433,13.5883913 40.4729926,13.584531 40.5517065,13.5746728 L42.1452399,16.2780344 L43.4949962,16.2780344 L41.6987426,13.3629715 Z M40.4503464,12.5328458 L39.0390044,12.5328458 L39.0390044,9.86284326 L40.4503464,9.86284326 C41.4293046,9.86284326 41.9668976,10.4119836 41.9668976,11.1882217 C41.9720298,11.937516 41.4780601,12.5328458 40.4554785,12.5328458 L40.4503464,12.5328458 Z" id="Shape"></path>
                <path d="M51.7372337,12.5123172 C51.7372337,10.2400565 49.9820374,8.59263535 47.818835,8.59263535 C45.6556326,8.59263535 43.9107006,10.2400565 43.9107006,12.5123172 C43.9107006,14.7845779 45.6543495,16.4281499 47.818835,16.4281499 C49.9833205,16.4281499 51.7372337,14.7832949 51.7372337,12.5123172 Z M47.818835,15.258019 C46.2676418,15.258019 45.1372851,14.1379266 45.1372851,12.5123172 C45.1372851,10.8648961 46.2676418,9.76661535 47.818835,9.76661535 C49.3700282,9.76661535 50.4991019,10.8648961 50.4991019,12.5123172 C50.4991019,14.1379266 49.3571978,15.258019 47.818835,15.258019 Z" id="Shape"></path>
                <polygon id="Path" points="51.6435719 8.74403389 51.6435719 9.86284326 54.0774955 9.86284326 54.0774955 16.2806005 55.2617398 16.2806005 55.2617398 9.86284326 57.9009494 9.86284326 57.2299205 8.74403389"></polygon>
                <path d="M73.9030021,16.2793174 L70.7210674,8.74403389 L69.6125222,8.74403389 L66.4254555,16.2793174 L67.7084937,16.2793174 L68.4077496,14.5677444 L71.9271236,14.5677444 L72.6263792,16.2793174 L73.9030021,16.2793174 Z M68.8324352,13.5233513 L69.8062611,11.1676931 C69.9679243,10.7584039 70.1501153,10.1874519 70.1616625,10.1874519 L70.1719271,10.1874519 C70.1834743,10.1874519 70.3669486,10.7584039 70.5273285,11.1676931 L71.4973056,13.5246344 L68.8324352,13.5233513 Z" id="Shape"></path>
                <path d="M76.0212986,10.7250449 C76.0328458,10.7250449 76.6782139,11.6616628 77.3453937,12.5764691 L80.0910958,16.2806005 L81.2163201,16.2806005 L81.2163201,8.74403389 L80.0205285,8.74403389 L80.0205285,11.9516294 C80.0205285,13.1358737 80.0526049,14.2457018 80.0423403,14.2457018 L80.0320757,14.2457018 C80.0205285,14.2457018 79.2622528,13.1910444 78.728509,12.4584296 L75.9558632,8.74403389 L74.8357708,8.74403389 L74.8357708,16.2806005 L76.0315625,16.2806005 L76.0315625,13.0832692 C76.0315625,11.736079 75.9994868,10.7250449 76.0097514,10.7250449 L76.0212986,10.7250449 Z" id="Path"></path>
                <path d="M95.0295097,8.76199646 L91.8424431,16.299846 L93.1254812,16.299846 L93.8247368,14.5882731 L97.3441111,14.5882731 L98.04465,16.299846 L99.3276882,16.299846 L96.1380549,8.76199646 L95.0295097,8.76199646 Z M94.2596868,13.5413138 L95.2283806,11.1843726 C95.3900437,10.7750834 95.5722347,10.2041314 95.5837826,10.2041314 L95.5863486,10.2041314 C95.5978958,10.2041314 95.7800875,10.7750834 95.94175,11.1843726 L96.9117271,13.5413138 L94.2596868,13.5413138 Z" id="Shape"></path>
                <polygon id="Path" points="98.4808826 8.74403389 98.4808826 9.86284326 100.913523 9.86284326 100.913523 16.2806005 102.097767 16.2806005 102.097767 9.86284326 103.859379 9.86284326 103.038235 8.74403389"></polygon>
                <path d="M109.699769,8.74403389 L107.986913,11.0535027 C107.793174,11.3229408 107.56736,11.634719 107.557095,11.634719 L107.545548,11.634719 C107.535283,11.634719 107.309469,11.3229408 107.105466,11.0535027 L105.39261,8.74403389 L104.042853,8.74403389 L106.950218,12.707339 L106.950218,16.2818835 L108.134463,16.2818835 L108.134463,12.707339 L111.041827,8.74531694 L109.699769,8.74403389 Z" id="Path"></path>
                <path d="M65.4965358,16.2806005 L65.4965358,8.74403389 L64.3764434,8.74403389 C64.3764434,8.74403389 61.9386708,12.9216064 61.9322556,12.9216064 L61.9219913,12.9216064 C61.9117269,12.9216064 59.5214267,8.74403389 59.5214267,8.74403389 L58.2114447,8.74403389 L61.610213,14.417629 L62.2337696,14.417629 C62.2337696,14.417629 64.3559148,10.7468566 64.3661791,10.7468566 L64.3764434,10.7468566 C64.3879908,10.7468566 64.3225558,16.2806005 64.3225558,16.2806005 L65.4965358,16.2806005 Z" id="Path"></path>
                <polygon id="Path" points="59.5150115 12.5828843 58.3474467 10.6365153 58.3474467 16.2793174 59.5214267 16.2793174"></polygon>
                <path d="M21.7808571,15.3157557 L21.5807031,15.4953811 C21.2525495,15.7880593 20.904902,16.0581184 20.5401591,16.3036951 L20.5401591,16.3036951 L20.4939697,16.3370542 C20.0496972,16.6363729 19.5815147,16.8985723 19.094175,17.1209906 L18.7092635,17.2942007 L19.0313061,17.5674878 C20.4935804,18.7953812 21.3349696,20.6093035 21.3279446,22.5187324 C21.3279446,22.6547344 21.3279446,22.7894535 21.3151142,22.9254555 C21.3022838,23.0614576 21.2933026,23.1987426 21.27534,23.3347447 C21.1509463,24.3124751 20.7994269,25.2475166 20.2489094,26.0650501 C19.9229053,26.5449538 19.5345978,26.9794267 19.094175,27.3570696 C18.9479087,27.4828073 18.7965101,27.6021299 18.6399794,27.7150372 C17.5036308,28.5320614 16.1391201,28.9710389 14.7395433,28.9698486 L3.50526046,28.9698486 L3.50526046,19.8833719 C3.50526046,18.3270465 4.60225815,17.0863485 6.23428278,16.7950988 C8.89273799,16.3229408 11.2663588,16.3370542 13.5860919,16.3511676 C13.9787016,16.3511676 14.3559148,16.3511676 14.731845,16.3511676 C20.7018219,16.3511676 22.8675905,11.4987169 22.8675905,8.23723382 C22.8584008,3.90372779 19.345061,0.394404507 15.0115474,0.390171944 L0.0179625353,0.390171944 L0.0179625353,14.9321273 C0.470875032,14.1623044 1.073903,13.649089 1.68591224,13.2321017 C2.2413519,12.8604317 2.84593099,12.5680746 3.48216577,12.3634847 L3.48216577,3.70169363 L14.2122145,3.70169363 C15.5151674,3.70711467 16.7620983,4.23221114 17.6764178,5.1605081 C18.0073341,5.49509238 18.2874449,5.87635437 18.5078265,6.29214783 C18.8673665,6.97364544 19.0487638,7.73498451 19.0351553,8.50538875 C18.9788467,11.0738358 16.8864633,13.1298001 14.3174237,13.1410059 L13.6156017,13.1525533 L13.2820118,13.1525533 C13.1691044,13.1525533 13.0574801,13.1525533 12.9432897,13.1525533 C12.582756,13.143572 12.2337696,13.1384399 11.8899153,13.1371568 L11.5960996,13.1371568 C11.3112651,13.1371568 11.0315627,13.1401506 10.7569926,13.1461381 L10.3990249,13.1551193 C10.1783423,13.1551193 9.96279188,13.1692328 9.74980757,13.178214 C9.59455993,13.1846292 9.44187833,13.1923274 9.29047986,13.2013087 L8.93636132,13.2244034 C8.38850396,13.242366 7.88042083,13.2718758 7.40697972,13.3129331 C6.83859379,13.3616885 6.32152938,13.4271235 5.84808827,13.5079549 C5.61200924,13.547729 5.38619451,13.5926353 5.17192713,13.6362587 C5.02822684,13.6683347 4.88965872,13.7029767 4.75493969,13.7376187 L4.55606877,13.7927894 C4.42776494,13.8299974 4.29946113,13.8684886 4.17757249,13.9095458 C3.47470256,14.1334742 2.81486124,14.4748911 2.22607134,14.9192969 C0.416987426,16.3101103 1.15463195e-13,18.0960996 1.15463195e-13,19.5459328 L1.15463195e-13,32.6098281 L14.3097254,32.6098281 L14.5765974,32.5931486 L14.5765974,32.5931486 C18.5680515,32.4904744 22.1366335,30.0793701 23.7213224,26.414536 C25.3060113,22.7497019 24.6183711,18.4981902 21.9591994,15.5197588 L21.7808571,15.3157557 Z" id="Path"></path>
            </g>
        </g>
    </g>
</svg>